{
  "accessors": [
    {
      "bufferView": 0,
      "componentType": 5125,
      "count": 65916,
      "type": "SCALAR"
    },
    {
      "bufferView": 1,
      "componentType": 5126,
      "count": 12320,
      "max": [
        0.20479999653050734,
        0.20479384102328843,
        0.023867580122259487
      ],
      "min": [
        -0.20479999653050734,
        -0.20479384102328846,
        -0.023867580122259487
      ],
      "type": "VEC3"
    },
    {
      "bufferView": 2,
      "componentType": 5126,
      "count": 12320,
      "max": [
        1.0,
        1.0,
        1.0
      ],
      "min": [
        -1.0,
        -1.0,
        -1.0
      ],
      "type": "VEC3"
    },
    {
      "bufferView": 3,
      "componentType": 5126,
      "count": 12320,
      "max": [
        1.0,
        0.9826956105891427
      ],
      "min": [
        0.0,
        0.0
      ],
      "type": "VEC2"
    }
  ],
  "asset": {
    "generator": "Adobe Illustrator",
    "version": "2.0"
  },
  "bufferViews": [
    {
      "buffer": 0,
      "byteLength": 263664,
      "target": 34963
    },
    {
      "buffer": 0,
      "byteLength": 147840,
      "byteOffset": 263664,
      "target": 34962
    },
    {
      "buffer": 0,
      "byteLength": 147840,
      "byteOffset": 411504,
      "target": 34962
    },
    {
      "buffer": 0,
      "byteLength": 98560,
      "byteOffset": 559344,
      "target": 34962
    }
  ],
  "buffers": [
    {
      "byteLength": 657904,
      "uri": "data:application/octet-stream;base64,"
    }
  ],
  "materials": [
    {
      "doubleSided": true,
      "pbrMetallicRoughness": {
        "baseColorFactor": [
          0.9804686903953552,
          0.0,
          0.0,
          1.0
        ],
        "metallicFactor": 0.0,
        "roughnessFactor": 0.4000000059604645
      }
    }
  ],
  "meshes": [
    {
      "primitives": [
        {
          "attributes": {
            "NORMAL": 2,
            "POSITION": 1,
            "TEXCOORD_0": 3
          },
          "indices": 0,
          "material": 0,
          "mode": 4
        }
      ]
    }
  ],
  "nodes": [
    {
      "mesh": 0
    }
  ],
  "scenes": [
    {
      "nodes": [
        0
      ]
    }
  ]
}
